<?xml version="1.0" encoding="UTF-8"?><svg id="Layer_2" xmlns="http://www.w3.org/2000/svg" viewBox="0 0 1275.81 393.71"><defs><style>.cls-1,.cls-2,.cls-3{stroke-width:0px;}.cls-2{fill:#e0855b;}.cls-3{fill:#fff;}</style></defs><g id="Layer_2-2"><path class="cls-2" d="m555.8,183.1c-9.02-5.23-22.86-8-42.12-8-14.8-.28-29.61.32-44.34,1.8-1.56.78-1.56,4.21,0,5.66l6.98.78c8.42,1.02,8.66,4.21,8.66,22.5v73.46c0,21.3-1.8,22.08-11.25,23.28l-3.25.36c-1.51,1.79-1.32,4.45.42,6.02,8-.42,17.09-.6,25.93-.6s18.05,0,29.66.6c1.54-1.66,1.71-4.16.42-6.02l-7.46-.78c-9.45-1.02-11.31-1.56-11.31-22.86v-87.72c0-7.82,0-8.42,10.23-8.42,18.05,0,28.7,14.26,28.7,30.5s-6.68,29.72-24.91,33.33c-1.01,1.6-.76,3.68.6,4.99,1.66.1,3.33.1,4.99,0,15.88,0,45-8.42,45-38.93.16-12.31-6.33-23.76-16.97-29.96Zm142.23,115.22c-9.39-7.82-19.49-24.91-35.56-51.98-.78-1.2-1.2-2.77,0-3.43,9.81-4.03,24.07-13.24,24.07-31.71.45-12.41-6.46-23.92-17.63-29.36-12.01-5.2-25.07-7.53-38.14-6.8-16.49,0-33.51.6-46.15,1.8-1.48,1.59-1.48,4.06,0,5.66l5.23.6c9.45,1.02,9.63,3.43,9.63,22.68v73.52c0,21.3-1.74,21.84-11.19,23.1l-4.45.54c-1.56,1.54-1.58,4.05-.04,5.62.14.15.3.28.46.4,9.23-.4,18.25-.6,27.07-.6s18.05,0,26.71.6c1.62-.78,1.8-4.39.42-6.02l-4.39-.54c-9.51-1.26-11.25-1.8-11.25-23.1v-25.75c0-4.21,0-4.39,6.02-4.39,5.25-.97,10.47,1.86,12.51,6.8,4.81,7.82,10.41,18.89,15.82,27.25,12.03,18.65,22.68,26.47,42.12,26.47,4.44.14,8.89-.26,13.24-1.2.73-1.29.59-2.89-.36-4.03-5.23-.53-10.18-2.68-14.14-6.14Zm-65.88-56.8c-9.63,0-9.63-.36-9.63-6.8v-41.75c0-9.21,0-9.81,10.59-9.81,17.51,0,27.74,13.84,27.74,29.72,0,19.01-9.08,28.64-28.7,28.64Zm148.01-69.01c-38.14-1.71-70.45,27.82-72.16,65.96-.08,1.76-.09,3.52-.04,5.28,0,35.74,26.11,67.69,71.42,67.69,40.55,0,70.63-29.48,70.63-69.07.3-36.46-23.64-69.85-69.85-69.85Zm1.62,130.86c-34.29,0-46.15-37.72-46.15-65.46,0-42.72,21.84-57.4,42.12-57.4,31.89,0,45.54,35.08,45.54,65.4-.3,40.37-18.77,57.46-41.63,57.46h.12Z"/><path class="cls-3" d="m1034.77,181.54l4.39-.6c1.38-1.38,1.26-4.99-.42-6.02-8.84.36-18.05.6-26.65.6s-18.05,0-27.07-.6h0c-5.6.36-12.03.6-19.49.6s-13.24,0-21.48-.6c-1.74,1.56-1.93,4.23-.42,6.02l6.02,1.38c6.02,1.44,6.62,3.01,3.43,11.07-10.65,27.25-22.68,54.99-33.51,80.26-1.99-4.57-7.4-16.43-11.01-25.51l-14.44-35.68c-8.24-20.52-9.87-24.91-9.87-26.71s1.62-2.59,6.02-3.55l4.99-1.2c1.66-1.27,1.98-3.65.7-5.31-.2-.26-.44-.5-.7-.7-10.65.36-17.45.6-26.47.6-7.82,0-16.49,0-24.07-.6-2.05.6-2.05,4.15-.6,5.6l4.81,1.02c8.06,1.62,9.87,4.39,15.46,18.05l35.14,84.23c3.55,8.59,6.64,17.37,9.27,26.29,1.16.69,2.5,1.04,3.85,1.02,1.23.11,2.46-.25,3.43-1.02,3.43-10.23,12.63-33.69,20.88-51.98l11.25-24.85c9.27-20.28,14.86-33.75,20.46-43.38,2.47-4.27,6.69-7.24,11.55-8.12l4.75-.96,4.03.54c9.39,1.14,11.25,1.8,11.25,23.04v74.85c0,21.3-1.87,21.84-11.25,23.1l-4.39.54c-1.54,1.78-1.35,4.47.42,6.02,8.84-.42,18.05-.6,27.07-.6s18.05,0,26.65.6c1.68-.78,1.8-4.39.42-6.02l-4.39-.54c-9.45-1.26-11.25-1.8-11.25-23.1v-74.72c0-21.24,1.8-21.9,11.25-23.04Zm240,121.41l-3.01-.54c-10.23-2.05-11.25-3.25-15.82-16.67l-28.94-84.23c-3.19-9.02-6.02-18.47-9.02-27.44-.77-1.08-2.04-1.69-3.37-1.62-3.84,4.31-8.67,7.61-14.08,9.63-.18,5.1-1.5,10.09-3.85,14.62l-27.5,71.48c-4.21,10.83-7.46,19.31-9.81,24.49-3.07,6.62-5.23,8.24-11.07,9.21l-6.02,1.02c-1.53,1.71-1.53,4.3,0,6.02,7.04-.42,13.24-.6,19.91-.6,8.18,0,14.86,0,21.24.6,1.62-.78,1.8-4.39.42-6.02l-6.02-1.02c-7.4-1.2-8.24-1.62-4.21-13.42l8.18-24.07c1.8-5.41,1.62-5.41,6.8-5.41h26.71c5.6,0,6.38,0,8.18,5.41l9.51,27.31c2.95,8.42,1.93,9.63-5.29,10.65l-4.39.54c-1.36,1.86-1.13,4.43.54,6.02,7.04,0,15.88-.6,24.49-.6,10.41,0,18.05,0,26.11.6,1.67-1.59,1.8-4.21.3-5.96Zm-61.43-53.01h-21.06c-4.75,0-5.17,0-3.19-6.02l8.42-23.52c3.37-9.45,5.23-14.44,6.02-15.82h.42c2.22,5.14,4.09,10.43,5.6,15.82l8.36,24.07c1.44,5.11.9,5.48-4.57,5.48Zm-85.8,52.22c-9.39-1.02-11.19-1.56-11.19-22.86v-86.76c0-8.42,0-8.78,5.35-8.78h10.59c18.41,0,24.07,2.23,31.35,18.47,2.19,1.17,4.91.56,6.38-1.44-2.77-8.78-5.29-18.59-6.86-25.69,0,0-8.96.6-22.68.6h-69.01c-13.6,0-22.62-.6-22.62-.6-1.62,7.1-4.15,16.91-6.86,25.69,1.5,2.04,4.28,2.66,6.5,1.44,7.4-16.24,12.82-18.47,31.29-18.47h7.88c5.23,0,5.41.36,5.41,8.78v86.76c0,21.3-1.8,21.48-11.25,22.62l-8.42,1.02c-1.51,1.79-1.32,4.45.42,6.02,12.88-.42,22.26-.6,31.11-.6s18.05,0,29.48.6c1.72-1.58,1.88-4.24.36-6.02l-7.22-.78ZM494.67,84.61c0-.6,0-1.32-1.02-1.32h-13.84c2.05-7.7,6.74-24.97,13.3-24.97,1.56,0,2.47,1.5,3.49,3.19,1.67,3.2,4.88,5.32,8.48,5.6,3.63.07,6.64-2.81,6.74-6.44,0-4.69-4.93-7.46-10.83-7.46-8.95.55-17.4,4.34-23.77,10.65-5.41,5.34-9.3,12.03-11.25,19.37h-10.71c-1.74,0-2.47,3.55-2.47,3.55,0,0,0,1.32,1.02,1.32h10.65c-8.78,29-10.95,37.18-19.43,68.71-1.87,7.16-5.35,20.34-11.25,20.34-2.47,0-3.49-2.95-3.97-4.39-1.02-2.95-2.17-6.02-6.86-6.02-3.32,0-6.02,2.69-6.02,6.02,0,4.69,5.23,8.9,12.39,8.9,6.39-.21,12.52-2.59,17.39-6.74,9.33-7.4,11.07-12.03,26.59-67.81l5.23-18.83h14.02c1.38-.12,2.11-2.71,2.11-3.67Zm75.33-8.78h-2.47c-1.62,0-1.93,0-4.09,2.35l-9.51,10.11c-4.69-4.24-10.76-6.63-17.09-6.74-21.84,0-43.2,18.71-43.2,40.31-.2,8.24,3.16,16.18,9.21,21.78l-8,8.6c-1.5,1.44-1.62,1.56-1.62,2.05s0,.6,2.05.6c2.95,0,3.25,0,4.51-1.44l6.56-7.04c3.88,2.48,8.39,3.8,13,3.79,18.05,0,44.1-15.58,44.1-40.73.18-6.54-1.95-12.93-6.02-18.05l12.69-13.42c.9-.84,1.26-1.26,1.26-1.74s-.84-.42-1.38-.42Zm-62.63,55.29c0-16.73,10.65-46.39,29.66-46.39,5.74-.42,10.9,3.5,12.03,9.15l-40.55,43.8c-.67-2.13-1.05-4.33-1.14-6.56Zm42.12-30.08c-.74,14.13-5.92,27.67-14.8,38.69-3.67,4.54-9.2,7.18-15.04,7.16-3.78.25-7.37-1.63-9.33-4.87l39.41-42.12-.24,1.14Zm76.05-19.25c-11.49,0-24.07,24.49-24.79,26.41l-4.27,8.72c-.72,1.62-2.05,4.21-2.89,6.44h-.3c4.06-10.87,7.05-22.12,8.9-33.57,0-6.02-1.93-7.76-5.11-7.76-10.95,0-24.97,19.73-24.97,22.92-.03.86.64,1.59,1.5,1.62,0,0,0,0,0,0,1.14,0,2.89-2.89,4.09-4.63,3.37-5.11,8.6-10.65,10.47-10.65s1.5,1.93,1.5,2.29c0,6.74-15.34,51.08-15.34,53.31s.6,2.05,6.02,2.05c3.43,0,5.41,0,6.02-1.2,1.62-2.47,22.32-55.59,31.47-55.59.6,0,1.44.48,1.44,2.23v2.47c.15,2.72,2.48,4.8,5.2,4.65.07,0,.14,0,.21-.02,6.02,0,8.18-7.1,8.18-11.25.67-4.07-2.09-7.9-6.16-8.57-.33-.05-.67-.09-1-.1l-.18.24Zm75.09,27.86c.27-14.98-11.56-27.4-26.53-27.86-21.9,0-43.2,18.71-43.2,40.31-.84,14.8,10.47,27.47,25.26,28.32.14,0,.28.02.43.02,17.81-.3,44.04-15.88,44.04-40.79Zm-28.76,30.08c-3.69,4.52-9.21,7.14-15.04,7.16-10.17,0-12.03-9.63-12.03-15.76,0-16.73,10.65-46.39,29.6-46.39,10.23,0,12.75,9.02,12.75,16-.83,14.29-6.18,27.94-15.28,38.99Zm96.26-58.24c-4.39.41-7.63,4.27-7.28,8.66.14,2.09.69,4.14,1.62,6.02.93,2.13,1.42,4.42,1.44,6.74,0,12.03-16.61,31.53-25.21,41.75h0c1.39-9.81,2.12-19.7,2.17-29.6,0-31.23-6.56-33.75-12.69-33.75-13.84,0-22.92,19.37-22.92,21.78s1.02,1.87,1.44,1.87c.61-.21,1.08-.7,1.26-1.32,4.69-8.18,8.06-14.32,12.03-14.32,6.56,0,6.56,26.41,6.56,29.48,0,27.01-3.37,37.54-6.74,44.4-2.32,6.18-7.67,10.73-14.14,12.03-1.5,0-2.35-.48-3.97-2.23-3.07-3.07-5.11-5.23-8.72-5.23-3.52-.2-6.53,2.48-6.74,6,0,0,0,.01,0,.02,0,3.79,3.37,7.76,11.07,7.76,9.08,0,16.67-1.02,47.29-38.69,20.34-24.79,30.08-40.97,30.08-52.22.12-4.09-1.2-9.08-6.56-9.08v-.06Zm81.64,44.52c-.6,0-1.14.48-1.74,1.32-1.62,3.07-9.51,13.42-13,13.42-1.2,0-1.44-1.32-1.44-2.47,0-6.02,17.39-54.15,17.39-55.35s-2.05-1.56-3.07-1.56h-4.81c-4.21,0-5.11.66-6.02,2.65,0,.6-.72,1.93-1.32,1.93-.82-.25-1.6-.6-2.35-1.02-2.71-1.39-5.74-2.05-8.78-1.93-19.67,0-50.96,24.07-50.96,52.22,0,8.18,3.91,15.16,12.03,15.16,13.42,0,26.41-16.79,36.76-30.08,1.22-1.47,2.33-3.04,3.31-4.69h.36c-.34,1.24-.74,2.47-1.2,3.67l-2.65,8.84c-1.88,5.16-3.19,10.5-3.91,15.94,0,6.02,4.21,6.02,6.02,6.02,13,0,26.83-19.07,26.83-22.74-.03-.73-.64-1.3-1.37-1.28-.04,0-.09,0-.13.01l.06-.06Zm-54.99,14.02c-6.02,0-6.02-5.66-6.02-7.58,0-13.42,17.39-46.15,36.64-46.15,1.74,0,8.12.48,8.12,6.02.24,11.31-27.92,47.71-38.81,47.71h.06Z"/><circle class="cls-2" cx="196.85" cy="196.85" r="196.85"/><circle class="cls-3" cx="196.85" cy="196.85" r="182.58"/><path class="cls-1" d="m311.69,141.9c.57,1.01.86,2.35.81,3.52-.65,13.78-1.41,27.57-2.1,41.36-.5,9.9-.89,19.81-1.45,29.71-.06,1.08-.76,2.25-1.46,3.15-3.68,4.77-7.38,9.53-11.2,14.19-7.12,8.67-15.11,16.53-22.96,24.52-6.09,6.19-12.01,12.55-18.01,18.83-.23.24-.44.5-.67.74-2.56,2.65-3.76,5.65-3.56,9.49.41,7.67.42,15.37.55,23.05.02,1.27-.09,2.56-.31,3.81-.07.43-.62.91-1.06,1.12-5.75,2.75-11.7,3.13-17.88,1.6-7.72-1.91-15.57-2.84-23.54-2.67-5.81.13-11.25,1.58-16.35,4.31-3,1.61-5.96,1.9-9.3.95-7.27-2.07-14.73-1.83-22.19-1.19-8.38.73-16.64,2.15-24.76,4.36-.13.03-.28,0-.66,0,.07-1.5.14-3,.23-4.48.72-11.32,2.35-22.56,2.21-33.94-.02-1.66-.35-3.11-1.41-4.34-3.08-3.54-6.06-7.18-9.31-10.56-8.88-9.25-18.1-18.17-26.73-27.63-6.67-7.32-12.66-15.25-18.96-22.91-1.14-1.38-1.44-2.93-1.5-4.73-.32-8.82-.8-17.63-1.24-26.44-.18-3.65-.26-7.3-.6-10.94-.46-5.05-1.25-10.07-1.66-15.13-.5-6.1-.78-12.22-1.07-18.32-.04-.79.28-1.71.7-2.4,3.47-5.66,6.91-11.34,10.54-16.91,4.12-6.31,7.42-13,10.22-19.98.33-.83.94-1.65,1.63-2.22,7.85-6.44,15.8-12.77,23.6-19.29,2.79-2.34,5.13-5.2,7.89-7.6,1.73-1.5,3.73-2.79,5.79-3.77,2.09-1,3.38-.3,3.99,1.94.73,2.68,1.21,5.44,1.75,8.18.24,1.22-.15,2.28-.89,3.31-4.02,5.58-8.1,11.13-11.94,16.83-2.81,4.17-5.25,8.58-7.95,12.82-2.24,3.52-4.36,7.16-6.97,10.4-3.14,3.9-6.7,7.48-10.17,11.12-.88.92-1.37,1.77-1.29,3.09.54,8.9,1.04,17.81,1.5,26.71.19,3.65.23,7.3.43,10.95.11,2.13.36,4.25.64,6.37.06.52.34,1.09.7,1.5,8.31,9.47,15.83,19.54,22.58,30.19.11.18.26.35.5.65,0-1.81.13-3.45-.02-5.07-.93-9.68-2.01-19.34-2.89-29.03-.38-4.24-.54-8.52-.59-12.79-.09-8.4-.05-16.81-.01-25.21.01-2.88.19-5.76.3-8.64,0-.19.07-.38.13-.55.99-2.94,5.37-5.95,8.47-5.81,1.68.07,2.93.92,4.01,2.16,3.08,3.53,4.42,7.77,5.23,12.27,2.42,13.53,4.99,27.04,7.27,40.6.93,5.51,1.15,11.13,1.93,16.67.29,2.07,1.12,4.1,1.93,6.05,2.82,6.74,6.93,12.56,12.17,17.69,6.34,6.21,12.36,12.72,18.59,19.05,2.81,2.86,4.1,6.23,4.28,10.21.31,6.73.87,13.45,1.19,20.17.44,9.24.75,18.49,1.11,27.73.01.22.04.44.06.67.07,0,.15,0,.22.01.26-3.16.62-6.31.77-9.47.27-5.4.3-10.81.62-16.22.26-4.44.81-8.87,1.22-13.3.28-3.07.54-6.14.83-9.2.39-4.22,2.75-7.39,5.58-10.29,6.58-6.75,14.26-12.08,22.01-17.32,3.61-2.44,7.23-4.91,11.01-7.08,8.22-4.72,14.86-11.1,20.6-18.55,2.18-2.83,4.63-5.49,5.19-9.17.28-1.85.22-3.76.32-5.64.16-2.84.14-5.7.54-8.51,1.19-8.35,2.07-16.79,4-24.97,1.32-5.6,4.01-10.91,6.42-16.21,1.42-3.12,3.98-5.23,7.55-5.94,1.97-.38,3.4.23,4.69,1.62,2.14,2.31,2.59,5.21,2.92,8.15,1.07,9.48.85,18.96.09,28.43-.74,9.27-1.73,18.51-2.66,27.77-.26,2.55-.62,5.09-1.06,7.61-.21,1.23.25,1.61,1.36,1.7,3.09.25,5.3-1.08,6.82-3.71,1.99-3.43,2.03-7.2,1.58-10.94-1.34-11.22-2.27-22.45-2.55-33.76-.19-7.62-1.05-15.24-1.69-22.85-.32-3.87-2.28-6.08-6.15-7-1.19-.28-1.98-.79-2.68-1.8-9.61-13.83-20.39-26.7-32.18-38.72-.46-.46-.81-1.34-.74-1.97.41-3.19.85-6.39,1.52-9.53.54-2.52,2.05-3.33,4.32-2.15,2.21,1.13,4.46,2.48,6.17,4.25,9.57,9.9,20.67,18.01,31.09,26.9.45.38.88.89,1.09,1.43,3.69,9.32,8.77,17.85,14.35,26.14,2.35,3.5,4.5,7.15,6.58,10.81Z"/><path class="cls-1" d="m261.69,144.39c.62,1.09.65,2.16.42,3.4-1.07,5.88-2.1,11.76-3,17.67-.88,5.86-1.58,11.75-2.39,17.62-.08.59-.32,1.15-.79,1.75-1.63-10.62-5.81-19.91-13.22-27.82.98-1.07,1.87-2.17,2.9-3.12,3.57-3.33,3.3-8.71.77-12.38-.95-1.37-1.94-2.7-2.88-4.06-.26-.38-.52-.83-.58-1.27-.86-6.57-4.18-11.91-8.32-16.86-2.13-2.54-2.08-2.52-.3-5.28,1.42-2.19,2.74-4.43,4.27-6.93,1.03,1.23,2.1,2.26,2.87,3.49,4.59,7.3,9.18,14.61,13.65,21.99,2.33,3.86,4.39,7.87,6.59,11.8Z"/><path class="cls-1" d="m235.03,78.94c.88.68,1.81,1.3,2.63,2.03,6.31,5.59,11.83,11.93,17.16,18.42,6.75,8.21,13.29,16.59,19.91,24.9.52.66.95,1.38,1.54,2.26-7.39,2.55-9.23,9.33-12.19,15.42-.38-.63-.7-1.13-1-1.65-5.68-9.58-11.27-19.21-17.08-28.72-1.61-2.64-3.88-4.89-5.82-7.33-.19-.25-.35-.67-.28-.95,1.87-8.15.43-15.69-4.08-22.69-.32-.5-.66-1-.98-1.49.06-.07.13-.13.19-.2Z"/><path class="cls-1" d="m216.11,189.05c1.5-1.15,2.44-.87,2.93.93.23.85.33,1.78.31,2.67-.18,6.18-.25,12.32,1.16,18.42.26,1.13-.19,2.55-.66,3.7-1.41,3.49-3.85,6.28-6.48,8.92-3.86,3.87-8.21,7.01-13.21,9.26-5.33,2.4-10.54,2.26-15.75-.41-7.19-3.67-13-8.99-18.3-14.95-4.19-4.72-7.81-9.82-9.69-15.93-.6-1.96-.71-4.09-1.01-6.14-1.5-10.18-2.83-20.38-4.55-30.52-1.58-9.29-3.77-18.48-5.29-27.79-.39-2.38.48-5.07,1.17-7.51,1.74-6.11,5.32-11.04,10.22-15.08,3.9-3.21,7.99-6.1,12.52-8.35.31-.15.65-.59.68-.92.54-6.79,2.95-13.03,5.9-19.04,2.1-4.3,4.43-8.5,6.9-12.59,4.13-6.84,10.48-10.19,18.27-11.12,5.6-.67,11.07.15,16.49,1.45.3.07.62.25.85.46,8.31,7.3,14.6,15.94,17.36,26.81.62,2.47.91,5.04,1.13,7.58.09,1.08-.2,2.28-.64,3.29-3.05,6.97-7.21,13.24-12.56,18.67-4.67,4.75-10.48,6.6-17.01,6.66-5.24.05-10.4-.58-15.16-1.84,1.5,1.56,3.29,3.16,4.76,5,1.57,1.96,2.38,4.28,2.15,6.89-.36,4.19-.67,8.4-1.01,12.66,1.3-2.18,2.6-4.4,3.94-6.6,3.41-5.68,7.78-10.41,13.73-13.48,3.52-1.81,7.35-2.22,11.23-1.9,2.4.19,4.6,1.19,6.45,2.76,4.23,3.59,7.87,7.71,10.63,12.54,2.51,4.41.4,7.9-3.33,10.55-.23.16-.8.02-1.11-.15-7.66-4.24-15.47-4.55-23.5-1.05-13.55,5.89-24.47,14.91-32.74,27.15-.22.31-.43.63-.62.96-.04.06,0,.17,0,.63,1.78-1.93,3.37-3.69,5.01-5.4,7.76-8.1,16.39-14.99,27.08-18.87,4.68-1.7,9.5-2.64,14.52-1.91,6.51.95,11.02,4.45,13.69,10.45,3.04,6.84,3.62,13.99,2.74,21.32-.25,2.06-.72,4.09-1.06,6.14-.09.52-.07,1.07-.1,1.61.13.09.25.17.37.26.67-.52,1.36-1.01,1.99-1.59,1.04-.96,2-2.02,3.08-2.94.6-.51,1.33-.93,2.07-1.21,2.06-.79,3.65.42,3.45,2.63-.06.63-.29,1.34-.67,1.83-4.77,6.1-9.55,12.2-15.5,17.22-2.42,2.04-5.23,3.4-8.48,3.03-3.76-.42-6.83-2.47-7.24-8.4-.27-4.06-.18-8.15-.25-12.23-.02-1.09.16-2.24-.13-3.26-.32-1.13-.91-2.28-1.68-3.17-.97-1.1-2.44-1.18-3.61-.28-1.66,1.29-3.19,2.76-4.77,4.14l.36.43c1-.8,1.98-1.61,2.99-2.39Z"/><path class="cls-3" d="m192.92,291.92c-.15,3.16-.51,6.31-.77,9.47-.07,0-.15,0-.22-.01-.02-.22-.05-.44-.06-.67-.36-9.24-.67-18.49-1.11-27.73-.32-6.72-.88-13.44-1.19-20.17-.18-3.98-1.48-7.35-4.28-10.21-6.22-6.33-12.25-12.85-18.59-19.05-5.24-5.13-9.35-10.96-12.17-17.69-.81-1.95-1.64-3.98-1.93-6.05-.77-5.54-1-11.16-1.93-16.67-2.28-13.56-4.85-27.07-7.27-40.6-.81-4.5-2.15-8.75-5.23-12.27-1.08-1.24-2.33-2.09-4.01-2.16-3.11-.14-7.49,2.87-8.47,5.81-.06.18-.13.36-.13.55-.11,2.88-.29,5.75-.3,8.64-.04,8.4-.07,16.81.01,25.21.05,4.27.21,8.55.59,12.79.88,9.69,1.95,19.36,2.89,29.03.15,1.61.02,3.25.02,5.07-.23-.3-.38-.47-.5-.65-6.74-10.65-14.26-20.72-22.58-30.19-.35-.4-.63-.97-.7-1.5-.27-2.12-.52-4.24-.64-6.37-.2-3.65-.24-7.3-.43-10.95-.47-8.9-.96-17.81-1.5-26.71-.08-1.32.42-2.17,1.29-3.09,3.46-3.64,7.03-7.22,10.17-11.12,2.61-3.24,4.74-6.88,6.97-10.4,2.7-4.24,5.14-8.66,7.95-12.82,3.85-5.7,7.92-11.25,11.94-16.83.74-1.03,1.13-2.09.89-3.31-.54-2.74-1.02-5.49-1.75-8.18-.61-2.24-1.91-2.93-3.99-1.94-2.07.99-4.06,2.27-5.79,3.77-2.75,2.39-5.09,5.26-7.89,7.6-7.79,6.51-15.74,12.84-23.6,19.29-.69.57-1.3,1.39-1.63,2.22-2.8,6.97-6.1,13.67-10.22,19.98-3.62,5.56-7.07,11.24-10.54,16.91-.42.69-.74,1.61-.7,2.4.28,6.11.57,12.23,1.07,18.32.42,5.05,1.2,10.07,1.66,15.13.34,3.64.42,7.29.6,10.94.43,8.81.91,17.62,1.24,26.44.07,1.79.36,3.34,1.5,4.73,6.3,7.66,12.29,15.6,18.96,22.91,8.63,9.46,17.86,18.38,26.73,27.63,3.25,3.38,6.23,7.02,9.31,10.56,1.07,1.23,1.39,2.67,1.41,4.34.15,11.37-1.49,22.62-2.21,33.94-.09,1.49-.16,2.98-.23,4.48.38,0,.53.03.66,0,8.13-2.21,16.38-3.63,24.76-4.36,7.46-.64,14.92-.88,22.19,1.19,3.34.95,6.3.66,9.3-.95,5.1-2.73,10.55-4.18,16.35-4.31,7.97-.17,15.82.76,23.54,2.67,6.18,1.54,12.13,1.16,17.88-1.6.44-.22.99-.7,1.06-1.12.22-1.25.33-2.54.31-3.81-.13-7.69-.14-15.38-.55-23.05-.21-3.84,1-6.84,3.56-9.49.23-.24.44-.5.67-.74,5.99-6.28,11.92-12.63,18.01-18.83,7.85-7.99,15.84-15.85,22.96-24.52,3.82-4.66,7.52-9.41,11.2-14.19.7-.9,1.4-2.07,1.46-3.15.56-9.9.95-19.81,1.45-29.71.69-13.79,1.45-27.57,2.1-41.36.05-1.17-.24-2.51-.81-3.52-2.08-3.67-4.22-7.32-6.58-10.81-5.58-8.29-10.67-16.83-14.35-26.14-.22-.54-.64-1.05-1.09-1.43-10.43-8.89-21.53-17-31.09-26.9-1.71-1.77-3.96-3.12-6.17-4.25-2.28-1.17-3.78-.36-4.32,2.15-.67,3.15-1.11,6.34-1.52,9.53-.08.63.28,1.5.74,1.97,11.79,12.02,22.57,24.89,32.18,38.72.7,1.01,1.5,1.52,2.68,1.8,3.87.92,5.83,3.13,6.15,7,.63,7.61,1.5,15.23,1.69,22.85.28,11.31,1.21,22.54,2.55,33.76.44,3.74.4,7.51-1.58,10.94-1.52,2.63-3.73,3.95-6.82,3.71-1.11-.09-1.57-.47-1.36-1.7.44-2.52.8-5.06,1.06-7.61.93-9.25,1.92-18.5,2.66-27.77.76-9.47.98-18.96-.09-28.43-.33-2.94-.79-5.84-2.92-8.15-1.29-1.4-2.72-2.01-4.69-1.62-3.57.71-6.13,2.82-7.55,5.94-2.41,5.29-5.11,10.6-6.42,16.21-1.93,8.19-2.81,16.63-4,24.97-.4,2.81-.38,5.68-.54,8.51-.1,1.88-.03,3.79-.32,5.64-.56,3.68-3.01,6.35-5.19,9.17-5.74,7.45-12.38,13.83-20.6,18.55-3.78,2.18-7.4,4.64-11.01,7.08-7.75,5.24-15.44,10.57-22.01,17.32-2.83,2.9-5.19,6.07-5.58,10.29-.28,3.07-.54,6.14-.83,9.2-.41,4.44-.96,8.87-1.22,13.3-.32,5.4-.35,10.81-.62,16.22Zm24.61-105.05c1.17-.9,2.64-.82,3.61.28.77.88,1.36,2.04,1.68,3.17.28,1.02.11,2.17.13,3.26.07,4.07-.03,8.17.25,12.23.41,5.93,3.48,7.98,7.24,8.4,3.25.37,6.06-.99,8.48-3.03,5.95-5.02,10.73-11.12,15.5-17.22.38-.49.62-1.2.67-1.83.2-2.21-1.39-3.41-3.45-2.63-.74.28-1.48.7-2.07,1.21-1.08.92-2.04,1.98-3.08,2.94-.63.58-1.32,1.07-1.99,1.59-.13-.09-.25-.17-.37-.26.03-.54.01-1.09.1-1.61.34-2.05.81-4.09,1.06-6.14.88-7.33.3-14.48-2.74-21.32-2.67-6-7.18-9.5-13.69-10.45-5.03-.73-9.84.21-14.52,1.91-10.69,3.87-19.32,10.77-27.08,18.87-1.64,1.71-3.23,3.48-5.01,5.4,0-.46-.03-.56,0-.63.19-.32.4-.64.62-.96,8.27-12.24,19.19-21.26,32.74-27.15,8.03-3.49,15.84-3.19,23.5,1.05.31.17.88.31,1.11.15,3.74-2.65,5.85-6.14,3.33-10.55-2.75-4.83-6.4-8.95-10.63-12.54-1.85-1.58-4.05-2.57-6.45-2.76-3.87-.32-7.7.09-11.23,1.9-5.95,3.07-10.32,7.81-13.73,13.48-1.33,2.21-2.64,4.43-3.94,6.6.34-4.26.65-8.46,1.01-12.66.23-2.61-.59-4.93-2.15-6.89-1.47-1.85-3.25-3.45-4.76-5,4.76,1.26,9.92,1.89,15.16,1.84,6.53-.06,12.35-1.91,17.01-6.66,5.35-5.44,9.51-11.7,12.56-18.67.44-1,.74-2.21.64-3.29-.22-2.55-.51-5.12-1.13-7.58-2.76-10.88-9.05-19.51-17.36-26.81-.23-.21-.55-.38-.85-.46-5.42-1.29-10.89-2.11-16.49-1.45-7.79.93-14.14,4.28-18.27,11.12-2.47,4.1-4.8,8.3-6.9,12.59-2.95,6.02-5.36,12.25-5.9,19.04-.03.33-.37.76-.68.92-4.54,2.25-8.63,5.14-12.52,8.35-4.9,4.04-8.48,8.97-10.22,15.08-.7,2.44-1.56,5.13-1.17,7.51,1.53,9.3,3.71,18.5,5.29,27.79,1.72,10.14,3.05,20.35,4.55,30.52.3,2.05.4,4.18,1.01,6.14,1.88,6.11,5.49,11.21,9.69,15.93,5.3,5.96,11.12,11.28,18.3,14.95,5.21,2.67,10.42,2.81,15.75.41,5-2.25,9.35-5.4,13.21-9.26,2.63-2.63,5.07-5.42,6.48-8.92.46-1.15.92-2.57.66-3.7-1.41-6.09-1.34-12.24-1.16-18.42.02-.89-.07-1.81-.31-2.67-.49-1.81-1.42-2.08-2.93-.93-1.01.77-1.99,1.59-2.99,2.39l-.36-.43c1.58-1.38,3.11-2.85,4.77-4.14Zm149.21,10.14c.01,93.58-76.1,169.46-169.85,169.46S26.6,290.51,26.96,196.12c.37-94.35,77.14-169.67,171.4-168.87,93.24.8,168.38,76.22,168.39,169.75Zm-90.48-70.46c-.59-.88-1.02-1.6-1.54-2.26-6.62-8.31-13.16-16.7-19.91-24.9-5.33-6.48-10.85-12.83-17.16-18.42-.83-.74-1.75-1.36-2.63-2.03-.06.07-.13.13-.19.2.32.5.66.99.98,1.49,4.51,7,5.95,14.54,4.08,22.69-.07.28.09.7.28.95,1.94,2.44,4.21,4.69,5.82,7.33,5.81,9.5,11.4,19.13,17.08,28.72.3.52.62,1.03,1,1.65,2.96-6.1,4.8-12.87,12.19-15.42Zm-14.16,21.25c.23-1.24.19-2.31-.42-3.4-2.21-3.93-4.26-7.94-6.59-11.8-4.47-7.38-9.05-14.69-13.65-21.99-.77-1.23-1.84-2.26-2.87-3.49-1.53,2.5-2.85,4.74-4.27,6.93-1.78,2.75-1.83,2.74.3,5.28,4.14,4.95,7.46,10.29,8.32,16.86.06.44.32.89.58,1.27.93,1.37,1.93,2.7,2.88,4.06,2.53,3.68,2.8,9.05-.77,12.38-1.03.96-1.92,2.06-2.9,3.12,7.41,7.91,11.59,17.21,13.22,27.82.47-.6.71-1.16.79-1.75.8-5.87,1.5-11.77,2.39-17.62.89-5.91,1.93-11.79,3-17.67Zm-89.4-63.9c-.67.1-1.23.15-1.76.27-2.23.51-4.06,1.7-5.75,3.22-3.73,3.34-6.43,7.46-9.1,11.61-5.44,8.46-10.32,17.23-14.28,26.5-.68,1.59-.66,2.88.94,4.06,1.5-4.96,3.74-9.42,6.99-13.34,4.42-5.34,9.91-9.36,15.91-12.72.89-.5,1.2-1.11,1.42-2.06.84-3.54,1.72-7.08,2.8-10.56.72-2.32,1.82-4.54,2.83-6.98Zm-6.13-2.1c.27-.17.61-.56.59-.83-.18-3.36-.17-6.76-1.66-9.89-1.37-2.89-3.12-3.5-5.8-1.7-2.55,1.71-5.03,3.58-7.29,5.65-4.21,3.86-7.01,8.81-10.15,13.5-6.56,9.81-13.69,19.24-19.82,29.36-2.91,4.81-6.5,9.21-9.79,13.78-1.69,2.34-3.49,4.6-5.06,7.02-1.29,1.99-1.76,4.28-1.6,6.68.25,3.69.46,7.38.77,11.07.59,7.04,1.21,14.08,1.87,21.12.06.68.3,1.42.69,1.98,3.37,4.88,7.84,8.69,12.5,12.92v-2.16c0-12.63-.05-25.26.02-37.89.03-5.45.44-10.91.44-16.36,0-6.29,6.7-11.49,11.34-11.58,1.15-.03,1.73-.53,2.34-1.44,6.97-10.63,13.95-21.25,21.03-31.81,2.53-3.77,5.69-6.99,9.58-9.42Z"/><path class="cls-1" d="m170.95,84.17c.54-.13,1.09-.17,1.76-.27-1,2.44-2.1,4.66-2.83,6.98-1.08,3.48-1.95,7.02-2.8,10.56-.23.95-.54,1.56-1.42,2.06-6,3.36-11.49,7.38-15.91,12.72-3.25,3.92-5.49,8.38-6.99,13.34-1.6-1.17-1.62-2.47-.94-4.06,3.95-9.27,8.84-18.03,14.28-26.5,2.67-4.15,5.37-8.27,9.1-11.61,1.69-1.52,3.53-2.71,5.75-3.22Z"/><path class="cls-1" d="m167.17,80.97c.02.27-.32.66-.59.83-3.89,2.43-7.05,5.65-9.58,9.42-7.08,10.56-14.06,21.19-21.03,31.81-.6.91-1.19,1.41-2.34,1.44-4.65.09-11.35,5.29-11.34,11.58,0,5.45-.41,10.91-.44,16.36-.07,12.63-.02,25.26-.02,37.89v2.16c-4.66-4.23-9.13-8.04-12.5-12.92-.39-.56-.63-1.3-.69-1.98-.66-7.04-1.28-14.07-1.87-21.12-.31-3.69-.52-7.38-.77-11.07-.16-2.39.31-4.69,1.6-6.68,1.57-2.42,3.37-4.68,5.06-7.02,3.29-4.58,6.88-8.97,9.79-13.78,6.13-10.12,13.25-19.55,19.82-29.36,3.14-4.69,5.95-9.65,10.15-13.5,2.26-2.07,4.75-3.94,7.29-5.65,2.68-1.8,4.43-1.2,5.8,1.7,1.49,3.13,1.48,6.53,1.66,9.89Z"/></g></svg>