<svg xmlns="http://www.w3.org/2000/svg" width="44" height="44" viewBox="0 0 45 44" fill="none">
  <path d="M22.5131 1.13086C18.3755 1.13086 14.3307 2.35578 10.8903 4.65073C7.44999 6.94567 4.76856 10.2076 3.18514 14.0239C1.60172 17.8403 1.18742 22.0397 1.99464 26.0911C2.80186 30.1425 4.79434 33.864 7.72012 36.7849C10.6459 39.7058 14.3736 41.695 18.4318 42.5008C22.4899 43.3067 26.6963 42.8931 30.5191 41.3123C34.3418 39.7315 37.6091 37.0546 39.9079 33.62C42.2066 30.1853 43.4336 26.1473 43.4336 22.0165C43.4336 19.2738 42.8925 16.5579 41.8411 14.0239C40.7898 11.49 39.2488 9.18754 37.3061 7.24812C35.3635 5.30871 33.0572 3.77029 30.5191 2.72068C27.9809 1.67108 25.2604 1.13086 22.5131 1.13086Z" fill="white"/>
  <path d="M22.513 43.6091C34.4581 43.6091 44.1414 33.9419 44.1414 22.0167C44.1414 10.0916 34.4581 0.424316 22.513 0.424316C10.568 0.424316 0.884644 10.0916 0.884644 22.0167C0.884644 33.9419 10.568 43.6091 22.513 43.6091Z" fill="#EE8251"/>
  <path d="M36.7247 36.2045C33.4356 39.4884 29.1076 41.5323 24.4783 41.9877C19.8489 42.4431 15.2046 41.282 11.3367 38.7021C7.46873 36.1222 4.61648 32.2832 3.26589 27.8392C1.91531 23.3953 2.14996 18.6212 3.92987 14.3306C5.70978 10.04 8.92481 6.49823 13.0272 4.30881C17.1295 2.11938 21.8654 1.41776 26.4278 2.32348C30.9903 3.2292 35.097 5.68622 38.0483 9.27591C40.9996 12.8656 42.6128 17.3658 42.6131 22.0099C42.6176 24.6466 42.0997 27.2582 41.0891 29.6944C40.0785 32.1305 38.5953 34.343 36.7247 36.2045Z" fill="white"/>
  <path d="M22.5131 3.28418C18.7956 3.28418 15.1617 4.38504 12.0711 6.44745C8.98055 8.50986 6.5722 11.4411 5.1508 14.8704C3.72941 18.2997 3.35885 22.0728 4.08602 25.7123C4.81318 29.3519 6.60539 32.6943 9.23588 35.3168C11.8664 37.9392 15.2169 39.7237 18.8636 40.4445C22.5102 41.1653 26.2891 40.7901 29.7221 39.3662C33.155 37.9423 36.0878 35.5339 38.1493 32.4455C40.2108 29.3572 41.3083 25.7278 41.3031 22.0165C41.2961 17.046 39.3133 12.2814 35.7903 8.76915C32.2672 5.25691 27.4919 3.28417 22.5131 3.28418ZM31.2795 14.2686C31.1307 14.3281 30.9888 14.4034 30.8561 14.4932C30.6732 14.6314 30.5221 14.8071 30.4128 15.0084C30.2337 15.322 30.0788 15.6488 29.9497 15.986C29.7446 15.6425 28.0111 12.3531 27.2503 11.7587L27.29 11.6596C27.3077 11.6142 27.3232 11.5679 27.3363 11.5209C27.3424 11.477 27.3424 11.4326 27.3363 11.3888C27.3926 10.9642 27.363 10.5327 27.2494 10.1197C27.1357 9.70675 26.9403 9.32073 26.6747 8.98447C27.6009 9.42702 31.3589 14.2422 31.2795 14.2686ZM27.9714 15.9001C27.8568 15.724 27.7399 15.5588 27.6208 15.4047C27.5495 14.8259 27.3207 14.2776 26.9592 13.8195C26.8025 13.6 26.6323 13.3904 26.4497 13.192L26.5622 13.0335C26.7654 12.7445 26.9488 12.4421 27.1113 12.1285C27.773 12.6834 29.6652 16.237 29.7247 16.3295L29.7578 16.4946C29.5262 17.1551 29.1756 20.3718 29.0962 20.7021H29.0102C28.8847 19.5526 28.385 18.476 27.5877 17.6373L28.0376 17.1551C28.1473 16.9832 28.2069 16.7842 28.2096 16.5805C28.1997 16.3392 28.1217 16.1057 27.9847 15.9067L27.9714 15.9001ZM22.083 7.44546C22.5166 7.26477 22.9827 7.17485 23.4526 7.18125C23.7949 7.18239 24.1362 7.21779 24.4715 7.28693L24.7758 7.35959H24.8486C26.9724 9.16941 26.9592 11.0915 26.9592 11.3689C26.9037 11.5548 26.8283 11.7342 26.7342 11.904C26.4827 12.3969 26.1764 12.86 25.8212 13.2845C25.5274 13.6582 25.1546 13.9627 24.7295 14.1762L24.5376 14.2422C24.1902 14.3342 23.8318 14.3786 23.4724 14.3743C23.061 14.3715 22.6509 14.3273 22.2484 14.2422L21.9308 14.1696L21.7191 14.1101C21.9566 14.2096 22.1682 14.3619 22.3379 14.5553C22.5076 14.7487 22.6309 14.9782 22.6983 15.2264C22.7084 15.8113 22.6574 16.3958 22.5461 16.9702C22.5461 16.9702 22.8836 16.4351 23.0821 16.0719C23.391 15.5801 23.796 15.1555 24.273 14.8235C24.3966 14.7436 24.5273 14.675 24.6633 14.6187L24.8486 14.5527C25.063 14.4877 25.2862 14.4565 25.5102 14.4602H25.7881C26.0981 14.5021 26.386 14.6435 26.6085 14.8631C27.0097 15.2169 27.3554 15.6288 27.634 16.0851C27.7323 16.2272 27.7874 16.3946 27.7928 16.5672C27.7912 16.6987 27.7522 16.827 27.6803 16.9371C27.5716 17.1012 27.4296 17.2407 27.2635 17.3467C26.91 17.1228 26.5103 16.9816 26.0945 16.9335C25.6786 16.8855 25.2572 16.9319 24.8618 17.0692C23.1621 17.7219 21.7266 18.918 20.7796 20.4709C20.9261 20.3376 21.0652 20.1965 21.1964 20.0482C23.6312 17.2938 26.4894 16.6861 27.4554 18.4101C27.773 19.021 27.9258 19.7039 27.8987 20.3917C27.898 20.6638 27.8759 20.9354 27.8325 21.2041C27.8325 21.3032 27.8325 21.3824 27.7862 21.4353V21.4947C27.7862 21.4947 27.5414 22.2081 28.0574 21.6334C28.8315 20.7681 29.1028 21.4353 28.8779 21.7193C28.5272 22.1685 28.117 22.6704 27.9317 22.862C27.6798 23.1517 27.4055 23.4211 27.1113 23.6678C26.1784 24.3284 25.6094 23.7207 25.5168 23.4565C25.4259 23.1457 25.3857 22.8223 25.3977 22.4987C25.3977 22.2477 25.3977 21.9967 25.3977 21.7721C25.4106 21.6315 25.4106 21.49 25.3977 21.3494C25.3925 21.2179 25.3382 21.093 25.2456 20.9993C25.2017 20.95 25.1456 20.913 25.0828 20.8922C25.0201 20.8713 24.953 20.8673 24.8883 20.8804C24.605 21.0276 24.374 21.2582 24.2267 21.541C24.3844 21.3887 24.5524 21.2475 24.7295 21.1182C24.7601 21.1123 24.7915 21.1123 24.8221 21.1182C24.8221 21.1182 24.8221 21.1182 24.8817 21.1182C24.9407 21.1973 24.9773 21.2909 24.9875 21.389C24.9979 21.5055 24.9979 21.6227 24.9875 21.7391C24.9875 21.9439 24.9875 22.2015 24.9875 22.4657C24.9911 22.8419 25.0377 23.2164 25.1265 23.582C25.2985 24.335 23.3864 26.224 22.0367 26.224C20.687 26.224 18.7286 24.1302 18.2522 23.0866C18.1596 22.8752 18.0802 22.6837 18.0339 22.5516L17.981 22.393C17.9106 21.447 17.7891 20.5055 17.6171 19.5726C17.4053 18.2516 17.1341 16.8182 16.8827 15.6557C16.8827 15.5765 16.8496 15.5038 16.8297 15.4378V15.3981C16.8602 14.9148 16.9941 14.4437 17.2223 14.0164C17.4506 13.5891 17.7679 13.2157 18.153 12.9212C18.4396 12.6745 18.7473 12.4535 19.0726 12.2606L19.377 12.0889L19.463 12.0493L19.5755 11.9964V11.8709C19.5755 11.7653 19.6482 10.6027 20.8987 8.56834C21.1609 8.0756 21.5766 7.68145 22.083 7.44546ZM19.7343 9.56573C19.7737 9.55965 19.8139 9.55965 19.8533 9.56573C19.5199 10.2183 19.2963 10.9213 19.1917 11.6464C18.717 11.8958 18.273 12.1995 17.8685 12.5513C17.2212 13.0913 16.7529 13.8144 16.5254 14.6253C16.481 14.5505 16.4301 14.4798 16.3732 14.4139C16.2806 14.3083 17.3789 12.0757 18.3581 10.715C18.5962 10.3512 18.8936 10.0297 19.238 9.76388L19.3505 9.69123C19.3505 9.69123 19.7012 9.56573 19.7343 9.56573ZM16.9422 9.39399C17.3106 8.80288 17.814 8.30719 18.411 7.94745C18.5047 7.88902 18.6117 7.85495 18.722 7.84837C18.7646 7.84863 18.8067 7.85893 18.8446 7.87844C18.8825 7.89795 18.9153 7.92612 18.9403 7.96066C19.067 8.1408 19.1466 8.34969 19.1719 8.56834C19.2103 8.80643 19.2302 9.04714 19.2314 9.28831C19.1507 9.32849 19.0733 9.37486 18.9999 9.42702C18.6196 9.71826 18.2909 10.071 18.0273 10.4706C16.9224 12.0295 15.9498 13.6015 15.6851 14.0242H15.6124C15.3161 14.0345 15.0318 14.1438 14.8052 14.3347C14.6006 14.4899 14.439 14.6944 14.3354 14.9292C14.3129 14.9911 14.2974 15.0553 14.2891 15.1207C14.2431 15.5441 14.2188 15.9696 14.2163 16.3955C14.2163 16.9768 14.2163 17.7165 14.2163 18.4629C14.2163 19.6519 14.2163 20.3454 14.2163 21.5476C13.9583 21.323 13.5944 20.9927 13.2901 20.6757C13.1469 20.5288 13.0142 20.3721 12.8931 20.2067C12.8287 20.1278 12.7834 20.0351 12.7608 19.9359C12.7608 19.6519 12.7078 19.2754 12.6351 18.3242C12.5557 17.8156 12.5557 17.3599 12.516 16.9702C12.4763 16.5805 12.4696 16.3096 12.4696 16.204C12.4852 15.9871 12.5509 15.7769 12.6615 15.5897C12.8095 15.3113 12.9967 15.0555 13.2173 14.8301C13.4234 14.6029 13.6115 14.36 13.7797 14.1035C14.4082 13.192 15.2021 11.8709 15.2749 11.7653C15.8373 11.0453 16.2541 10.4442 16.5982 9.88278L16.9422 9.39399ZM35.2559 17.3202C35.2559 17.9279 35.1831 18.7271 35.1368 19.5594C35.0508 21.2371 34.9515 23.0734 34.9118 23.8792C34.9118 24.0906 34.9118 24.2227 34.9118 24.2821L34.8655 24.3746C34.8192 24.4539 34.7464 24.5661 34.6472 24.6982C34.4553 24.9625 34.1907 25.3059 33.8797 25.6824C33.2578 26.4354 32.4705 27.3271 31.8221 27.9744C30.8958 28.8992 29.6652 30.1277 29.0102 30.8807C28.839 31.062 28.6882 31.2613 28.5603 31.4752C28.5349 31.5242 28.5214 31.5785 28.5206 31.6337C28.5206 31.6998 28.5206 32.063 28.5206 32.5584L28.5735 34.7646C28.5548 34.8717 28.5416 34.9797 28.5338 35.0882C28.4121 35.152 28.2861 35.2072 28.1567 35.2534C27.8577 35.3628 27.5423 35.4209 27.2238 35.4251C26.5159 35.4251 25.7749 35.0222 23.9951 35.0222C22.4271 35.0222 22.0102 35.6827 21.4346 35.6827C21.3471 35.6825 21.2601 35.6691 21.1766 35.6431C20.6148 35.4864 20.033 35.4129 19.4498 35.4251C18.1969 35.4557 16.9526 35.6398 15.7447 35.9733C15.7447 35.9271 15.7447 35.861 15.7447 35.7884L16.0159 32.4858C16.0159 31.9904 16.0159 31.6271 16.0159 31.5611C16.0129 31.5054 15.997 31.4511 15.9696 31.4025C15.8415 31.1888 15.6906 30.9895 15.5197 30.8081C14.8581 30.0551 13.6341 28.8265 12.7078 27.9018C12.0462 27.2412 11.2655 26.3628 10.6502 25.6098C10.3392 25.2333 10.068 24.8898 9.88271 24.6256C9.79008 24.4935 9.71069 24.3812 9.66437 24.3019L9.61806 24.2095C9.61806 24.1522 9.61806 24.0179 9.61806 23.8065C9.57836 23.0007 9.47912 21.1645 9.39311 19.4867C9.24755 18.595 9.18139 17.8156 9.14831 17.1551C9.11523 16.4946 9.09538 16.1247 9.09538 16.0586C9.10994 16.0061 9.12989 15.9552 9.15492 15.9067C9.41028 15.4341 9.69076 14.9755 9.99518 14.5328C10.3525 13.9846 10.7097 13.4364 10.9016 13.0599C11.1353 12.5975 11.3451 12.1236 11.5301 11.6398L12.8534 10.5499L13.8789 9.74407C14.1766 9.49307 14.395 9.30812 14.481 9.21565C14.567 9.12318 14.8515 8.81273 15.1426 8.55513C15.28 8.43375 15.4284 8.3254 15.5859 8.23148C15.6953 8.16095 15.8201 8.1179 15.9498 8.10598C16.0002 8.10379 16.0497 8.12026 16.0887 8.15221C16.1526 8.21353 16.1984 8.29123 16.221 8.37679C16.3306 8.67583 16.3931 8.99 16.4063 9.30812C16.4108 9.36528 16.4108 9.4227 16.4063 9.47986C16.0093 10.0611 15.5793 10.7348 14.964 11.5143L14.7258 11.9106C14.5074 12.2739 14.1634 12.8353 13.826 13.3505C13.6606 13.6081 13.4885 13.8525 13.343 14.0639C13.2325 14.222 13.1109 14.3721 12.9791 14.513L12.0727 15.4378C12.0727 15.5566 12.0727 16.6069 12.119 17.0032C12.1587 17.5844 12.2248 18.3903 12.2778 19.097C12.2548 19.5987 12.2859 20.1014 12.3704 20.5964C13.3514 21.7019 14.2367 22.8885 15.0169 24.1434C15.0169 22.9347 14.6001 21.0059 14.6001 18.4894C14.6001 17.6043 14.6001 16.805 14.6001 16.1973C14.6001 15.8935 14.6001 15.6359 14.6398 15.4444C14.6795 15.2528 14.6398 15.266 14.6398 15.2066C14.6373 15.1714 14.6373 15.1361 14.6398 15.1009C14.7196 14.9312 14.84 14.7838 14.9904 14.6715C15.1468 14.5339 15.3447 14.4525 15.5528 14.4404C15.643 14.4424 15.7316 14.4648 15.8118 14.506C15.892 14.5472 15.9618 14.6061 16.0159 14.6782C16.2684 14.9667 16.4436 15.3144 16.5254 15.6887C16.7702 16.8381 17.0415 18.3308 17.2532 19.5858C17.423 20.5078 17.5422 21.4383 17.6104 22.3732V22.4393C17.8624 23.2763 18.2961 24.0476 18.8808 24.6982C19.7144 25.5305 21.5272 27.2611 21.6199 27.6706C21.7985 28.2584 21.9705 33.7936 21.9705 33.7936C22.0845 32.8401 22.1419 31.8806 22.1426 30.9203C22.1426 30.4646 22.2881 29.956 22.2881 29.4606C22.2793 28.9497 22.3327 28.4395 22.4469 27.9414C22.8505 26.6204 26.9989 24.2557 27.3561 23.9783C27.6689 23.7388 27.963 23.476 28.2361 23.1923C28.461 22.9677 28.858 22.4657 29.2153 22.0165C29.486 21.6328 29.5974 21.1594 29.5262 20.6955C29.5905 19.442 29.7587 18.1959 30.0291 16.9702C30.1857 16.4904 30.3713 16.0206 30.5848 15.5633C30.6929 15.2828 30.8625 15.03 31.0811 14.8235C31.2625 14.6886 31.4777 14.6064 31.703 14.5857C31.8035 14.5836 31.9017 14.6163 31.9809 14.6782C32.2015 14.8654 32.3413 15.1304 32.3712 15.4179C32.7748 17.6967 32.0007 22.8488 31.9941 22.8752C31.9875 22.9016 32.8211 23.1923 33.0792 22.1024C33.2313 21.4419 32.8873 20.2001 32.8476 18.5356C32.8476 17.558 32.755 16.3625 32.616 14.9027C32.5919 14.7896 32.5441 14.6828 32.4757 14.5895C32.4072 14.4961 32.3198 14.4183 32.219 14.3611C32.0733 14.296 31.9199 14.2493 31.7625 14.2224C30.6479 12.6071 29.3901 11.0951 28.0045 9.70444C28.0159 9.29805 28.0759 8.89448 28.1832 8.50229C28.2061 8.41686 28.2518 8.33924 28.3155 8.27771C28.3548 8.24629 28.4041 8.2299 28.4544 8.23148C28.5843 8.2426 28.7093 8.28572 28.8183 8.35698C28.9758 8.45093 29.1242 8.55928 29.2616 8.68063C29.5593 8.93163 29.8107 9.21565 29.9232 9.34115C30.0357 9.46665 30.2342 9.61857 30.5253 9.86957L31.5376 10.7084L32.8608 11.7983C33.0508 12.2735 33.265 12.7387 33.5026 13.192C33.6878 13.5619 34.0517 14.1167 34.409 14.6649C34.7136 15.1075 34.9941 15.5662 35.2493 16.0388C35.2722 16.0875 35.2899 16.1384 35.3022 16.1907C35.3022 16.2766 35.2824 16.6993 35.2493 17.307L35.2559 17.3202Z" fill="#2E2A25"/>
</svg>