<svg width="59" height="58" viewBox="0 0 59 58" fill="none" xmlns="http://www.w3.org/2000/svg">
<g id="Group 257">
<circle id="Ellipse 18" cx="29.766" cy="29" r="27.5" stroke="white" stroke-width="3"/>
<path id="instagram" d="M38.5115 19.3559C38.1441 19.3559 37.7849 19.4648 37.4795 19.6689C37.174 19.8731 36.9359 20.1632 36.7953 20.5026C36.6547 20.842 36.618 21.2155 36.6896 21.5758C36.7613 21.9361 36.9382 22.2671 37.198 22.5269C37.4578 22.7867 37.7888 22.9636 38.1491 23.0353C38.5094 23.1069 38.8829 23.0702 39.2223 22.9296C39.5617 22.789 39.8518 22.5509 40.056 22.2454C40.2601 21.9399 40.369 21.5808 40.369 21.2134C40.369 20.7208 40.1733 20.2483 39.8249 19.9C39.4766 19.5516 39.0041 19.3559 38.5115 19.3559ZM45.632 23.1019C45.6019 21.8176 45.3614 20.5469 44.92 19.3404C44.5264 18.3081 43.9138 17.3734 43.1243 16.6005C42.3578 15.8071 41.4209 15.1984 40.3845 14.8204C39.1812 14.3656 37.9091 14.1195 36.623 14.0929C34.9822 14 34.4559 14 30.2454 14C26.035 14 25.5087 14 23.8679 14.0929C22.5818 14.1195 21.3097 14.3656 20.1064 14.8204C19.0719 15.2022 18.1358 15.8104 17.3665 16.6005C16.5731 17.3671 15.9644 18.304 15.5864 19.3404C15.1316 20.5437 14.8855 21.8158 14.8589 23.1019C14.766 24.7427 14.766 25.269 14.766 29.4795C14.766 33.6899 14.766 34.2162 14.8589 35.857C14.8855 37.1431 15.1316 38.4152 15.5864 39.6185C15.9644 40.6549 16.5731 41.5918 17.3665 42.3584C18.1358 43.1485 19.0719 43.7567 20.1064 44.1385C21.3097 44.5933 22.5818 44.8394 23.8679 44.866C25.5087 44.9589 26.035 44.9589 30.2454 44.9589C34.4559 44.9589 34.9822 44.9589 36.623 44.866C37.9091 44.8394 39.1812 44.5933 40.3845 44.1385C41.4209 43.7605 42.3578 43.1518 43.1243 42.3584C43.9173 41.5884 44.5304 40.6528 44.92 39.6185C45.3614 38.412 45.6019 37.1413 45.632 35.857C45.632 34.2162 45.7249 33.6899 45.7249 29.4795C45.7249 25.269 45.7249 24.7427 45.632 23.1019ZM42.8457 35.6712C42.8344 36.6538 42.6565 37.6274 42.3194 38.5504C42.0723 39.2241 41.6753 39.8328 41.1585 40.3305C40.6564 40.8422 40.0489 41.2383 39.3783 41.4915C38.4553 41.8286 37.4817 42.0065 36.4991 42.0178C34.9512 42.0952 34.3785 42.1107 30.3074 42.1107C26.2363 42.1107 25.6635 42.1107 24.1156 42.0178C23.0953 42.0369 22.0794 41.8798 21.1126 41.5534C20.4714 41.2873 19.8918 40.8921 19.4098 40.3925C18.896 39.8952 18.504 39.286 18.2643 38.6123C17.8864 37.6761 17.6768 36.6804 17.6452 35.6712C17.6452 34.1233 17.5523 33.5505 17.5523 29.4795C17.5523 25.4084 17.5523 24.8356 17.6452 23.2877C17.6521 22.2831 17.8355 21.2876 18.187 20.3466C18.4595 19.6932 18.8777 19.1108 19.4098 18.6438C19.8801 18.1116 20.4613 17.6889 21.1126 17.4055C22.0561 17.065 23.0506 16.887 24.0537 16.8792C25.6016 16.8792 26.1743 16.7863 30.2454 16.7863C34.3165 16.7863 34.8893 16.7863 36.4372 16.8792C37.4198 16.8904 38.3934 17.0684 39.3164 17.4055C40.0198 17.6665 40.6512 18.091 41.1585 18.6438C41.6657 19.1193 42.0621 19.7007 42.3194 20.3466C42.6635 21.2892 42.8415 22.2843 42.8457 23.2877C42.9231 24.8356 42.9386 25.4084 42.9386 29.4795C42.9386 33.5505 42.9231 34.1233 42.8457 35.6712ZM30.2454 21.5385C28.413 21.5443 26.6391 22.1849 25.2258 23.3513C23.8125 24.5177 22.847 26.1379 22.4937 27.936C22.1404 29.7341 22.4212 31.5991 23.2881 33.2135C24.1551 34.8279 25.5547 36.0921 27.2487 36.7907C28.9428 37.4894 30.8266 37.5795 32.5796 37.0456C34.3326 36.5117 35.8464 35.3868 36.8634 33.8624C37.8804 32.3381 38.3378 30.5084 38.1576 28.6848C37.9775 26.8612 37.1709 25.1563 35.8753 23.8604C35.1359 23.122 34.2579 22.5368 33.2918 22.1383C32.3257 21.7399 31.2905 21.536 30.2454 21.5385ZM30.2454 34.6341C29.2259 34.6341 28.2293 34.3318 27.3817 33.7654C26.534 33.199 25.8733 32.3939 25.4832 31.4521C25.093 30.5102 24.9909 29.4737 25.1898 28.4738C25.3887 27.4739 25.8797 26.5555 26.6005 25.8346C27.3214 25.1137 28.2399 24.6227 29.2398 24.4238C30.2397 24.2249 31.2762 24.327 32.218 24.7172C33.1599 25.1073 33.965 25.768 34.5314 26.6157C35.0978 27.4634 35.4001 28.46 35.4001 29.4795C35.4001 30.1564 35.2668 30.8267 35.0077 31.4521C34.7487 32.0774 34.369 32.6457 33.8903 33.1243C33.4117 33.603 32.8434 33.9827 32.218 34.2417C31.5927 34.5008 30.9224 34.6341 30.2454 34.6341Z" fill="white"/>
</g>
</svg>
