<?xml version="1.0" encoding="UTF-8"?><svg id="Layer_1" xmlns="http://www.w3.org/2000/svg" viewBox="0 0 600 600"><defs><style>.cls-1{fill:#fff;stroke-width:0px;}</style></defs><path class="cls-1" d="m259.25,231.3c-12.55,21.41-32.07,39.33-55.74,46.79-23.67,7.46-51.44,3.31-69.89-13.27-18.47-16.59-25.55-44.01-19.68-68.13,7.9-32.47,33.92-48.89,45.69-55.93,31.87-19.07,64.62-16.56,78.21-14.52,43.83,6.58,91.84,38.82,105.79,91.69,16.8,63.69-27.32,113.77-32.91,119.9-37.83,41.49-93.69,47.52-113.75,49.69-17.24,1.86-77.38.82-122.66,10.8-11.23,2.48-22.66,5.98-31.34,13.52-8.68,7.54-13.95,20.04-10.04,30.86,5.04,13.97,22.31,19.25,37.15,18.74,22.59-.78,43.95-10.27,63.68-21.3,63.44-35.47,116.34-88.83,152.9-151.52,12.38-21.23,22.26-43.55,31.68-66.21,3.6-8.65,3.96-9.87,5.36-12.74,2.9-5.93,6.73-12.31,12.59-20.29,46.21-62.98,151.53-86.55,215.28-36.19,21.74,17.17,36.48,44.16,35.28,71.84-10.35-7.24-22.24-12.26-34.65-14.65-5.83-1.12-12.63-1.45-16.25,4.41-1.43,2.31-1.89,5.12-1.59,7.82.74,6.55,4.43,10.28,8.74,16.62.5.74,3.13,5.93,8.39,16.33,6,11.87,17.12,39.08,21.16,56.42,5.31,22.81,6.44,62.88-14.11,96.39-28.1,45.85-82.32,56.62-107.69,61.66-55.16,10.95-115.63.23-115.62,0,0-.03,12.97,1.55,33.34,1.35,0,0,18.97-.19,35.32-2.06,60.26-6.89,124.84-34.78,151.07-93.45,3.45-7.72,6.1-15.79,7.85-24.06,7.63-36.04-3.66-79.8-19.6-103.02-4.49-6.54-9.68-12.88-11.79-20.54-2.1-7.65-.02-17.21,7.05-20.82,3.35-1.71,7.28-1.85,11.04-1.58,12.64.9,24.93,6.09,34.39,14.51-1.47-7.6-4.51-18.67-11.25-30.63-1.25-2.22-9.25-16.14-23.51-28.21-24.05-20.35-52.41-24.02-68.18-25.86-63.1-7.37-112.8,23.31-127.8,39.86-3.34,3.69-6.58,7.84-6.58,7.84-6.04,7.84-13.24,19.27-21.42,38.56-12.7,29.93-25.55,60.64-42.21,88.54-37.76,63.26-96.5,116.78-164.15,146.42-11.78,5.16-23.87,9.59-36.21,13.2-11.39,3.33-23.23,6-35.04,4.83-11.81-1.17-23.69-6.73-30-16.78-8.59-13.69-3.36-32.16,4.18-42.97,11.12-15.95,30.68-19.74,56.24-23.25,72.44-9.95,91.59-3.31,134-11.75,35.02-6.98,60.16-11.75,82.28-32.91,29.52-28.25,42.81-75.04,31.54-117.55-2.18-8.23-13.44-47.09-51.72-70.53-22.46-13.75-44.13-16.02-54.07-16.46-9.29-.4-41.89-1.34-70.53,21.16-8.81,6.92-22.8,17.91-28.21,37.61-5.71,20.8-.98,48.1,18.61,64.58,25.14,21.15,58.44,10.99,66.17,8.26,21.84-7.73,39.84-24.07,53.21-43Z"/></svg>