<?xml version="1.0" width="146" height="44" encoding="UTF-8"?><svg id="Layer_1" xmlns="http://www.w3.org/2000/svg" viewBox="0 0 600 600"><defs><style>.cls-1{letter-spacing:-.01em;}.cls-2{letter-spacing:-.06em;}.cls-3{font-family:Baskerville, Baskerville;font-size:76.41px;}.cls-3,.cls-4{fill:#36294b;}.cls-4{stroke-width:0px;}</style></defs><path class="cls-4" d="m262.1,137.95c-11.33,19.33-28.96,35.51-50.32,42.24-21.37,6.73-46.44,2.99-63.1-11.99-16.67-14.98-23.07-39.74-17.77-61.51,7.13-29.31,30.63-44.14,41.25-50.5,28.78-17.21,58.34-14.95,70.61-13.11,39.57,5.94,82.92,35.05,95.51,82.78,15.17,57.5-24.67,102.71-29.72,108.25-34.15,37.46-84.59,42.91-102.7,44.86-15.56,1.68-69.87.74-110.74,9.75-10.14,2.24-20.46,5.4-28.3,12.21-7.84,6.81-12.59,18.1-9.07,27.86,4.55,12.61,20.14,17.38,33.54,16.92,20.39-.7,39.68-9.28,57.49-19.23,57.27-32.02,105.04-80.2,138.04-136.8,11.18-19.17,20.09-39.32,28.6-59.78,3.25-7.81,3.57-8.91,4.84-11.5,2.62-5.35,6.08-11.12,11.37-18.32,41.72-56.86,136.81-78.14,194.37-32.67,19.62,15.5,32.94,39.87,31.85,64.86-9.35-6.53-20.08-11.07-31.28-13.23-5.27-1.01-11.41-1.31-14.67,3.98-1.29,2.09-1.71,4.62-1.43,7.06.67,5.92,4,9.28,7.89,15.01.45.67,2.83,5.36,7.57,14.74,5.42,10.72,15.46,35.28,19.1,50.94,4.79,20.59,5.81,56.77-12.74,87.02-25.37,41.4-74.32,51.12-97.23,55.67-49.8,9.89-104.4.21-104.39,0,0-.02,11.71,1.4,30.1,1.22,0,0,17.13-.17,31.89-1.86,54.4-6.22,112.71-31.4,136.39-84.37,3.11-6.97,5.5-14.25,7.09-21.72,6.89-32.54-3.31-72.05-17.7-93.01-4.05-5.91-8.74-11.63-10.64-18.54-1.9-6.91-.02-15.54,6.36-18.8,3.03-1.55,6.57-1.67,9.96-1.43,11.41.81,22.51,5.5,31.05,13.1-1.33-6.86-4.07-16.86-10.16-27.66-1.13-2.01-8.35-14.58-21.23-25.47-21.71-18.37-47.32-21.69-61.55-23.35-56.97-6.65-101.84,21.05-115.38,35.98-3.02,3.33-5.94,7.08-5.94,7.08-5.45,7.08-11.95,17.4-19.34,34.82-11.47,27.02-23.07,54.75-38.11,79.94-34.09,57.12-87.13,105.44-148.2,132.19-10.63,4.66-21.55,8.66-32.7,11.92-10.28,3.01-20.98,5.42-31.64,4.36-10.66-1.06-21.39-6.08-27.08-15.15-7.76-12.36-3.03-29.03,3.77-38.79,10.04-14.4,27.7-17.82,50.78-20.99,65.41-8.99,82.7-2.98,120.99-10.61,31.61-6.3,54.32-10.61,74.29-29.72,26.65-25.5,38.65-67.75,28.48-106.13-1.97-7.43-12.14-42.51-46.7-63.68-20.28-12.42-39.84-14.47-48.82-14.86-8.39-.36-37.82-1.21-63.68,19.1-7.96,6.25-20.58,16.17-25.47,33.96-5.16,18.78-.88,43.42,16.8,58.31,22.7,19.1,52.77,9.93,59.74,7.46,19.72-6.98,35.97-21.73,48.04-38.82Z"/><text class="cls-3" transform="translate(4.12 504.42)"><tspan class="cls-2" x="0" y="0">F</tspan><tspan x="37.91" y="0">arum gospel </tspan><tspan class="cls-1" x="431.98" y="0">c</tspan><tspan x="463.77" y="0">hoir</tspan></text></svg>