<svg width="87" height="17" viewBox="0 0 87 17" fill="none" xmlns="http://www.w3.org/2000/svg">
<path d="M17.3883 16.5C13.8061 16.5 11.213 14.0159 11.213 10.4366V0.980801H13.5655V10.4633C13.5655 12.7871 15.1427 14.3898 17.3883 14.3898C19.6605 14.3898 21.211 12.7871 21.211 10.4633V0.980801H23.5635V10.49C23.5368 14.0159 20.9972 16.5 17.3883 16.5Z" fill="currentColor"/>
<path d="M33.2941 0.5C36.9298 0.5 39.5228 2.95743 39.5228 6.51002V16.0192H37.1704V6.4833C37.1704 4.18614 35.5664 2.58347 33.2941 2.58347C31.0219 2.58347 29.4179 4.18614 29.4179 6.4833V16.0192H27.0922V6.45659C27.0922 2.93072 29.6585 0.5 33.2941 0.5Z" fill="currentColor"/>
<path d="M49.9218 0.5C53.5574 0.5 56.1505 2.95743 56.1505 6.51002V16.0192H53.798V6.4833C53.798 4.18614 52.1941 2.58347 49.9218 2.58347C47.6495 2.58347 46.0456 4.18614 46.0456 6.4833V16.0192H43.6931V6.45659C43.7199 2.93072 46.2862 0.5 49.9218 0.5Z" fill="currentColor"/>
<path d="M86.9999 2.53005V0.5H85.1821C81.5464 0.5 78.9534 2.95743 78.9534 6.51002V16.0192H81.3058V6.4833C81.3058 4.18614 82.9098 2.58347 85.1821 2.58347L86.9999 2.53005Z" fill="currentColor"/>
<path d="M8.67346 14.4699V16.5H6.85564C3.22001 16.5 0.626953 14.0159 0.626953 10.4633V0.980801H2.97942V10.5167C2.97942 12.8139 4.58337 14.4165 6.85564 14.4165L8.67346 14.4699Z" fill="currentColor"/>
<path d="M72.9118 2.71703C71.5484 1.32805 69.6237 0.5 67.2712 0.5C67.2445 0.5 67.2178 0.5 67.191 0.5C67.1643 0.5 67.1376 0.5 67.0841 0.5C64.7584 0.5 62.7802 1.35476 61.3901 2.77045C60 4.18614 59.198 6.18948 59.198 8.48664C59.198 10.8105 60 12.8406 61.3901 14.283C62.7534 15.672 64.6782 16.5 67.0306 16.5C67.0574 16.5 67.0841 16.5 67.1108 16.5C67.1376 16.5 67.1643 16.5 67.2178 16.5C69.8376 16.5 72.0296 15.0042 72.8584 13.7487H72.9385C72.9385 13.7487 72.9118 14.1761 72.9118 14.7638C72.9118 15.3514 72.9118 16.0192 72.9118 16.0192H75.1039V8.51336C75.1039 6.18948 74.3019 4.15943 72.9118 2.71703ZM61.4435 8.51336C61.4435 5.7621 63.0208 3.57179 65.4267 2.85058C65.9613 2.66361 66.5495 2.58347 67.1643 2.58347C70.4791 2.58347 72.9118 4.85392 72.9118 8.48664C72.9118 11.6653 71.2544 13.4549 68.8485 14.1494C68.3138 14.3364 67.7257 14.4165 67.0841 14.4165C63.796 14.4165 61.4435 11.9057 61.4435 8.51336Z" fill="currentColor"/>
</svg>
